<svg width="1291" height="678" viewBox="0 0 1291 678" fill="none" xmlns="http://www.w3.org/2000/svg">
<path d="M651.333 544.979H4.23021C1.81746 540.741 3.5136 528.79 3.5136 524.545V494.694V378.819V96.954V38.6805V9.16538C3.5136 5.96988 5.24465 -0.919067 10.2407 3.36326C13.2564 5.94811 10.691 7.65178 15.6224 7.65178H22.4336H35.2991H72.2982H461.209H1259.13C1266.33 7.65178 1273.89 8.05777 1280.32 6.22227C1286.82 4.36452 1284.21 10.2318 1287.89 12.5289C1290.81 14.3541 1288.56 34.1708 1288.56 37.9237V109.82V408.839V499.571V513.193C1288.56 520.335 1285.53 527.087 1285.53 533.627C1285.53 535.875 1285.72 537.2 1285.91 537.932C1286.29 539.343 1286.7 538.553 1285.91 537.932C1285.56 537.655 1284.96 537.411 1284.02 537.411H1271.15H1209.85H1188.66C1187.58 537.411 1182.92 538.056 1183.45 536.486C1184.37 533.724 1184.53 531.356 1187.9 531.356C1195.14 531.356 1191.42 514.656 1190.28 509.489L1190.26 509.409C1189.34 505.267 1190.17 500.034 1190.17 495.787C1190.17 490.206 1186.86 487.468 1184.46 482.921C1181.94 478.17 1179.58 464.65 1174.37 463.16C1170.54 462.068 1166.76 458.495 1162.84 457.19C1159.1 455.942 1154.26 449.825 1150.82 449.622C1142.41 449.128 1133.88 450.526 1126.27 451.136C1117.12 451.868 1108.06 452.649 1098.6 452.649C1096.42 452.649 1093.9 453.377 1091.74 454.499C1091.27 459.795 1087.3 457.984 1088.43 456.854C1089.3 455.976 1090.46 455.168 1091.74 454.499C1091.77 454.164 1091.79 453.8 1091.79 453.406C1091.79 445.543 1092.63 437.513 1086.91 431.795C1084.92 429.805 1085.61 425.045 1081.87 423.975C1079.11 423.188 1073.06 422.522 1070.6 422.377C1061.15 421.822 1054.52 411.782 1045.63 411.782H1018.38H961.957H852.642C834.089 411.782 816.146 413.296 797.395 413.296H770.907C762.056 413.296 754.438 419.35 745.176 419.35C734.629 419.35 727.873 419.545 718.688 424.648C711.797 428.477 698.255 419.991 698.255 430.702V444.325C698.255 447.738 702.624 449.726 702.796 452.649C703.383 462.635 702.298 468.526 698.591 476.867C695.055 484.824 699.332 495.864 702.796 501.925C706.513 508.431 704.309 520.157 704.309 527.572C704.309 530.633 703.031 543.465 700.525 543.465C696.492 543.465 692.48 544.821 689.173 544.979C676.744 545.571 663.224 544.979 651.333 544.979Z" fill="#101010"/>
<path d="M2 544.979C218.444 544.979 434.889 544.979 651.333 544.979C663.224 544.979 676.744 545.571 689.173 544.979C692.48 544.821 696.492 543.465 700.525 543.465C703.031 543.465 704.309 530.633 704.309 527.572C704.309 520.157 706.513 508.431 702.796 501.925C699.332 495.864 695.055 484.824 698.591 476.867C702.298 468.526 703.383 462.635 702.796 452.649C702.624 449.726 698.255 447.738 698.255 444.325C698.255 439.784 698.255 435.243 698.255 430.702C698.255 419.991 711.797 428.477 718.688 424.648C727.873 419.545 734.629 419.35 745.176 419.35C754.438 419.35 762.056 413.296 770.907 413.296C779.737 413.296 788.566 413.296 797.395 413.296C816.146 413.296 834.089 411.782 852.642 411.782C889.08 411.782 925.519 411.782 961.957 411.782C980.765 411.782 999.573 411.782 1018.38 411.782C1027.46 411.782 1036.54 411.782 1045.63 411.782C1054.52 411.782 1061.15 421.822 1070.6 422.377C1073.06 422.522 1079.11 423.188 1081.87 423.975C1085.61 425.045 1084.92 429.805 1086.91 431.795C1092.63 437.513 1091.79 445.543 1091.79 453.406C1091.79 460.027 1087.22 458.056 1088.43 456.854C1090.78 454.504 1095.11 452.649 1098.6 452.649C1108.06 452.649 1117.12 451.868 1126.27 451.136C1133.88 450.526 1142.41 449.128 1150.82 449.622C1154.26 449.825 1159.1 455.942 1162.84 457.19C1166.76 458.495 1170.54 462.068 1174.37 463.16C1179.58 464.65 1181.94 478.17 1184.46 482.921C1186.86 487.468 1190.17 490.206 1190.17 495.787C1190.17 500.034 1189.34 505.267 1190.26 509.409C1191.39 514.481 1195.17 531.356 1187.9 531.356C1184.53 531.356 1184.37 533.724 1183.45 536.486C1182.92 538.056 1187.58 537.411 1188.66 537.411C1195.72 537.411 1202.79 537.411 1209.85 537.411C1230.28 537.411 1250.72 537.411 1271.15 537.411C1275.44 537.411 1279.73 537.411 1284.02 537.411C1288.18 537.411 1285.53 542.141 1285.53 533.627C1285.53 527.087 1288.56 520.335 1288.56 513.193C1288.56 508.652 1288.56 504.112 1288.56 499.571C1288.56 469.327 1288.56 439.083 1288.56 408.839C1288.56 309.166 1288.56 209.493 1288.56 109.82C1288.56 85.8543 1288.56 61.889 1288.56 37.9237C1288.56 34.1708 1290.81 14.3541 1287.89 12.5289C1284.21 10.2318 1286.82 4.36452 1280.32 6.22227C1273.89 8.05777 1266.33 7.65178 1259.13 7.65178C993.154 7.65178 727.181 7.65178 461.209 7.65178C331.572 7.65178 201.935 7.65178 72.2982 7.65178C59.9652 7.65178 47.6322 7.65178 35.2991 7.65178C31.0106 7.65178 26.7221 7.65178 22.4336 7.65178C20.1632 7.65178 17.8928 7.65178 15.6224 7.65178C10.691 7.65178 13.2564 5.94811 10.2407 3.36326C5.24465 -0.919067 3.5136 5.96988 3.5136 9.16538C3.5136 19.0038 3.5136 28.8421 3.5136 38.6805C3.5136 58.105 3.5136 77.5295 3.5136 96.954C3.5136 190.909 3.5136 284.864 3.5136 378.819C3.5136 417.444 3.5136 456.069 3.5136 494.694C3.5136 504.644 3.5136 514.595 3.5136 524.545C3.5136 529.743 0.970818 546.492 6.54079 546.492" stroke="white" stroke-width="3" stroke-linecap="round"/>
</svg>
